<mxfile host="app.diagrams.net" modified="2024-06-29T17:27:19.946Z" agent="Mozilla/5.0 (Windows NT 10.0; Win64; x64) AppleWebKit/537.36 (KHTML, like Gecko) Chrome/126.0.0.0 Safari/537.36" etag="59cwU7KOnPKwzROdKOD_" version="24.6.4" type="device">
  <diagram name="Page-1" id="wFHY89w6RM06-emfNQy0">
    <mxGraphModel dx="1320" dy="666" grid="1" gridSize="10" guides="1" tooltips="1" connect="1" arrows="1" fold="1" page="1" pageScale="1" pageWidth="850" pageHeight="1100" math="0" shadow="0">
      <root>
        <mxCell id="0" />
        <mxCell id="1" parent="0" />
        <mxCell id="0nlP4w7GxKzb-bfFtLwG-1" value="User" style="rounded=0;whiteSpace=wrap;html=1;" parent="1" vertex="1">
          <mxGeometry x="60" y="25" width="120" height="30" as="geometry" />
        </mxCell>
        <mxCell id="0nlP4w7GxKzb-bfFtLwG-2" value="System" style="rounded=0;whiteSpace=wrap;html=1;" parent="1" vertex="1">
          <mxGeometry x="750" y="25" width="90" height="30" as="geometry" />
        </mxCell>
        <mxCell id="0nlP4w7GxKzb-bfFtLwG-3" value="Disaster" style="rounded=0;whiteSpace=wrap;html=1;" parent="1" vertex="1">
          <mxGeometry x="640" y="25" width="100" height="30" as="geometry" />
        </mxCell>
        <mxCell id="0nlP4w7GxKzb-bfFtLwG-4" value="WeatherService" style="rounded=0;whiteSpace=wrap;html=1;" parent="1" vertex="1">
          <mxGeometry x="540" y="25" width="90" height="30" as="geometry" />
        </mxCell>
        <mxCell id="0nlP4w7GxKzb-bfFtLwG-5" value="NotificationService" style="rounded=0;whiteSpace=wrap;html=1;" parent="1" vertex="1">
          <mxGeometry x="410" y="25" width="120" height="30" as="geometry" />
        </mxCell>
        <mxCell id="0nlP4w7GxKzb-bfFtLwG-6" value="LocationService" style="rounded=0;whiteSpace=wrap;html=1;" parent="1" vertex="1">
          <mxGeometry x="280" y="25" width="120" height="30" as="geometry" />
        </mxCell>
        <mxCell id="0nlP4w7GxKzb-bfFtLwG-9" value="" style="endArrow=none;dashed=1;html=1;dashPattern=1 3;strokeWidth=2;rounded=0;entryX=0.5;entryY=1;entryDx=0;entryDy=0;" parent="1" target="0nlP4w7GxKzb-bfFtLwG-1" edge="1">
          <mxGeometry width="50" height="50" relative="1" as="geometry">
            <mxPoint x="120" y="2360" as="sourcePoint" />
            <mxPoint x="130" y="90" as="targetPoint" />
          </mxGeometry>
        </mxCell>
        <mxCell id="0nlP4w7GxKzb-bfFtLwG-10" value="" style="endArrow=none;dashed=1;html=1;dashPattern=1 3;strokeWidth=2;rounded=0;entryX=0.5;entryY=1;entryDx=0;entryDy=0;" parent="1" target="0nlP4w7GxKzb-bfFtLwG-6" edge="1">
          <mxGeometry width="50" height="50" relative="1" as="geometry">
            <mxPoint x="350" y="2360" as="sourcePoint" />
            <mxPoint x="450" y="20" as="targetPoint" />
          </mxGeometry>
        </mxCell>
        <mxCell id="0nlP4w7GxKzb-bfFtLwG-11" value="" style="endArrow=none;dashed=1;html=1;dashPattern=1 3;strokeWidth=2;rounded=0;entryX=0.5;entryY=1;entryDx=0;entryDy=0;" parent="1" target="0nlP4w7GxKzb-bfFtLwG-5" edge="1">
          <mxGeometry width="50" height="50" relative="1" as="geometry">
            <mxPoint x="470" y="2360" as="sourcePoint" />
            <mxPoint x="450" y="100" as="targetPoint" />
          </mxGeometry>
        </mxCell>
        <mxCell id="0nlP4w7GxKzb-bfFtLwG-12" value="" style="endArrow=none;dashed=1;html=1;dashPattern=1 3;strokeWidth=2;rounded=0;exitX=0.5;exitY=1;exitDx=0;exitDy=0;" parent="1" source="0nlP4w7GxKzb-bfFtLwG-4" edge="1">
          <mxGeometry width="50" height="50" relative="1" as="geometry">
            <mxPoint x="580" y="100" as="sourcePoint" />
            <mxPoint x="580" y="2360" as="targetPoint" />
          </mxGeometry>
        </mxCell>
        <mxCell id="0nlP4w7GxKzb-bfFtLwG-13" value="" style="endArrow=none;dashed=1;html=1;dashPattern=1 3;strokeWidth=2;rounded=0;exitX=0.5;exitY=1;exitDx=0;exitDy=0;" parent="1" source="0nlP4w7GxKzb-bfFtLwG-3" edge="1">
          <mxGeometry width="50" height="50" relative="1" as="geometry">
            <mxPoint x="680" y="60" as="sourcePoint" />
            <mxPoint x="690" y="2360" as="targetPoint" />
          </mxGeometry>
        </mxCell>
        <mxCell id="0nlP4w7GxKzb-bfFtLwG-14" value="" style="endArrow=none;dashed=1;html=1;dashPattern=1 3;strokeWidth=2;rounded=0;exitX=0.5;exitY=1;exitDx=0;exitDy=0;" parent="1" source="0nlP4w7GxKzb-bfFtLwG-2" edge="1">
          <mxGeometry width="50" height="50" relative="1" as="geometry">
            <mxPoint x="600" y="120" as="sourcePoint" />
            <mxPoint x="790" y="2360" as="targetPoint" />
          </mxGeometry>
        </mxCell>
        <mxCell id="0nlP4w7GxKzb-bfFtLwG-15" value="" style="endArrow=classic;html=1;rounded=0;" parent="1" edge="1">
          <mxGeometry width="50" height="50" relative="1" as="geometry">
            <mxPoint x="120" y="340" as="sourcePoint" />
            <mxPoint x="120" y="370" as="targetPoint" />
            <Array as="points">
              <mxPoint x="180" y="340" />
              <mxPoint x="180" y="370" />
            </Array>
          </mxGeometry>
        </mxCell>
        <mxCell id="0nlP4w7GxKzb-bfFtLwG-16" value="" style="endArrow=classic;html=1;rounded=0;" parent="1" edge="1">
          <mxGeometry width="50" height="50" relative="1" as="geometry">
            <mxPoint x="120" y="200" as="sourcePoint" />
            <mxPoint x="340" y="200" as="targetPoint" />
          </mxGeometry>
        </mxCell>
        <mxCell id="0nlP4w7GxKzb-bfFtLwG-17" value="Request Location Access" style="text;html=1;align=center;verticalAlign=middle;resizable=0;points=[];autosize=1;strokeColor=none;fillColor=none;" parent="1" vertex="1">
          <mxGeometry x="140" y="170" width="160" height="30" as="geometry" />
        </mxCell>
        <mxCell id="0nlP4w7GxKzb-bfFtLwG-18" value="" style="endArrow=open;html=1;rounded=0;dashed=1;endFill=0;dashPattern=8 8;" parent="1" edge="1">
          <mxGeometry width="50" height="50" relative="1" as="geometry">
            <mxPoint x="340" y="240" as="sourcePoint" />
            <mxPoint x="120" y="240" as="targetPoint" />
          </mxGeometry>
        </mxCell>
        <mxCell id="0nlP4w7GxKzb-bfFtLwG-19" value="Location Access Granted&amp;nbsp;" style="text;html=1;align=center;verticalAlign=middle;resizable=0;points=[];autosize=1;strokeColor=none;fillColor=none;" parent="1" vertex="1">
          <mxGeometry x="140" y="208" width="160" height="30" as="geometry" />
        </mxCell>
        <mxCell id="0nlP4w7GxKzb-bfFtLwG-20" value="" style="endArrow=classic;html=1;rounded=0;" parent="1" edge="1">
          <mxGeometry width="50" height="50" relative="1" as="geometry">
            <mxPoint x="120" y="280" as="sourcePoint" />
            <mxPoint x="470" y="280" as="targetPoint" />
          </mxGeometry>
        </mxCell>
        <mxCell id="0nlP4w7GxKzb-bfFtLwG-21" value="Request Notification Access" style="text;html=1;align=center;verticalAlign=middle;resizable=0;points=[];autosize=1;strokeColor=none;fillColor=none;" parent="1" vertex="1">
          <mxGeometry x="135" y="248" width="170" height="30" as="geometry" />
        </mxCell>
        <mxCell id="0nlP4w7GxKzb-bfFtLwG-22" value="" style="endArrow=open;html=1;rounded=0;dashed=1;endFill=0;dashPattern=8 8;" parent="1" edge="1">
          <mxGeometry width="50" height="50" relative="1" as="geometry">
            <mxPoint x="470" y="310" as="sourcePoint" />
            <mxPoint x="120" y="310" as="targetPoint" />
          </mxGeometry>
        </mxCell>
        <mxCell id="0nlP4w7GxKzb-bfFtLwG-23" value="Notification Acces Granted&amp;nbsp;" style="text;html=1;align=center;verticalAlign=middle;resizable=0;points=[];autosize=1;strokeColor=none;fillColor=none;" parent="1" vertex="1">
          <mxGeometry x="135" y="288" width="170" height="30" as="geometry" />
        </mxCell>
        <mxCell id="0nlP4w7GxKzb-bfFtLwG-24" value="" style="endArrow=classic;html=1;rounded=0;" parent="1" edge="1">
          <mxGeometry width="50" height="50" relative="1" as="geometry">
            <mxPoint x="120" y="100" as="sourcePoint" />
            <mxPoint x="120" y="130" as="targetPoint" />
            <Array as="points">
              <mxPoint x="180" y="100" />
              <mxPoint x="180" y="130" />
            </Array>
          </mxGeometry>
        </mxCell>
        <mxCell id="0nlP4w7GxKzb-bfFtLwG-26" value="return" style="html=1;verticalAlign=bottom;endArrow=open;dashed=1;endSize=8;curved=0;rounded=0;dashPattern=8 8;" parent="1" edge="1">
          <mxGeometry relative="1" as="geometry">
            <mxPoint x="120" y="390" as="sourcePoint" />
            <mxPoint x="120" y="420" as="targetPoint" />
            <Array as="points">
              <mxPoint x="180" y="390" />
              <mxPoint x="180" y="420" />
            </Array>
          </mxGeometry>
        </mxCell>
        <mxCell id="0nlP4w7GxKzb-bfFtLwG-27" value="&lt;b&gt;alt&lt;/b&gt;" style="shape=umlFrame;whiteSpace=wrap;html=1;pointerEvents=0;" parent="1" vertex="1">
          <mxGeometry x="70" y="150" width="470" height="280" as="geometry" />
        </mxCell>
        <mxCell id="0nlP4w7GxKzb-bfFtLwG-29" value="&lt;b&gt;[Grant Permissions ]&lt;/b&gt;" style="text;html=1;align=center;verticalAlign=middle;resizable=0;points=[];autosize=1;strokeColor=none;fillColor=none;" parent="1" vertex="1">
          <mxGeometry x="135" y="140" width="140" height="30" as="geometry" />
        </mxCell>
        <mxCell id="0nlP4w7GxKzb-bfFtLwG-30" value="&lt;b&gt;[Permission Not Granted]&lt;/b&gt;" style="text;html=1;align=center;verticalAlign=middle;resizable=0;points=[];autosize=1;strokeColor=none;fillColor=none;" parent="1" vertex="1">
          <mxGeometry x="120" y="310" width="170" height="30" as="geometry" />
        </mxCell>
        <mxCell id="0nlP4w7GxKzb-bfFtLwG-33" value="" style="endArrow=classic;html=1;rounded=0;" parent="1" edge="1">
          <mxGeometry width="50" height="50" relative="1" as="geometry">
            <mxPoint x="120" y="450" as="sourcePoint" />
            <mxPoint x="120" y="480" as="targetPoint" />
            <Array as="points">
              <mxPoint x="180" y="450" />
              <mxPoint x="180" y="480" />
            </Array>
          </mxGeometry>
        </mxCell>
        <mxCell id="0nlP4w7GxKzb-bfFtLwG-34" value="Choose authentication Method" style="text;html=1;align=center;verticalAlign=middle;resizable=0;points=[];autosize=1;strokeColor=none;fillColor=none;" parent="1" vertex="1">
          <mxGeometry x="115" y="428" width="190" height="30" as="geometry" />
        </mxCell>
        <mxCell id="0nlP4w7GxKzb-bfFtLwG-35" value="" style="endArrow=classic;html=1;rounded=0;" parent="1" edge="1">
          <mxGeometry width="50" height="50" relative="1" as="geometry">
            <mxPoint x="120" y="580" as="sourcePoint" />
            <mxPoint x="120" y="610" as="targetPoint" />
            <Array as="points">
              <mxPoint x="180" y="580" />
              <mxPoint x="180" y="610" />
            </Array>
          </mxGeometry>
        </mxCell>
        <mxCell id="0nlP4w7GxKzb-bfFtLwG-36" value="Enter Details (Username,Email,Password)" style="text;html=1;align=center;verticalAlign=middle;resizable=0;points=[];autosize=1;strokeColor=none;fillColor=none;" parent="1" vertex="1">
          <mxGeometry x="110" y="558" width="250" height="30" as="geometry" />
        </mxCell>
        <mxCell id="0nlP4w7GxKzb-bfFtLwG-37" value="" style="endArrow=classic;html=1;rounded=0;" parent="1" edge="1">
          <mxGeometry width="50" height="50" relative="1" as="geometry">
            <mxPoint x="120" y="640" as="sourcePoint" />
            <mxPoint x="790" y="640" as="targetPoint" />
          </mxGeometry>
        </mxCell>
        <mxCell id="0nlP4w7GxKzb-bfFtLwG-38" value="" style="endArrow=open;html=1;rounded=0;dashed=1;endFill=0;dashPattern=8 8;" parent="1" edge="1">
          <mxGeometry width="50" height="50" relative="1" as="geometry">
            <mxPoint x="800" y="680" as="sourcePoint" />
            <mxPoint x="120" y="680" as="targetPoint" />
          </mxGeometry>
        </mxCell>
        <mxCell id="0nlP4w7GxKzb-bfFtLwG-39" value="" style="endArrow=none;dashed=1;html=1;rounded=0;exitX=0.002;exitY=0.604;exitDx=0;exitDy=0;exitPerimeter=0;entryX=1.004;entryY=0.612;entryDx=0;entryDy=0;entryPerimeter=0;" parent="1" source="0nlP4w7GxKzb-bfFtLwG-27" target="0nlP4w7GxKzb-bfFtLwG-27" edge="1">
          <mxGeometry width="50" height="50" relative="1" as="geometry">
            <mxPoint x="400" y="510" as="sourcePoint" />
            <mxPoint x="450" y="460" as="targetPoint" />
          </mxGeometry>
        </mxCell>
        <mxCell id="0nlP4w7GxKzb-bfFtLwG-40" value="Store User Data" style="text;html=1;align=center;verticalAlign=middle;resizable=0;points=[];autosize=1;strokeColor=none;fillColor=none;" parent="1" vertex="1">
          <mxGeometry x="115" y="618" width="110" height="30" as="geometry" />
        </mxCell>
        <mxCell id="0nlP4w7GxKzb-bfFtLwG-41" value="Confrimation" style="text;html=1;align=center;verticalAlign=middle;resizable=0;points=[];autosize=1;strokeColor=none;fillColor=none;" parent="1" vertex="1">
          <mxGeometry x="125" y="658" width="90" height="30" as="geometry" />
        </mxCell>
        <mxCell id="0nlP4w7GxKzb-bfFtLwG-42" value="&lt;b&gt;alt&lt;/b&gt;" style="shape=umlFrame;whiteSpace=wrap;html=1;pointerEvents=0;" parent="1" vertex="1">
          <mxGeometry x="60" y="550" width="790" height="340" as="geometry" />
        </mxCell>
        <mxCell id="0nlP4w7GxKzb-bfFtLwG-44" value="" style="endArrow=none;dashed=1;html=1;rounded=0;exitX=0.003;exitY=0.417;exitDx=0;exitDy=0;exitPerimeter=0;entryX=1;entryY=0.426;entryDx=0;entryDy=0;entryPerimeter=0;" parent="1" source="0nlP4w7GxKzb-bfFtLwG-42" target="0nlP4w7GxKzb-bfFtLwG-42" edge="1">
          <mxGeometry width="50" height="50" relative="1" as="geometry">
            <mxPoint x="255" y="745" as="sourcePoint" />
            <mxPoint x="305" y="695" as="targetPoint" />
          </mxGeometry>
        </mxCell>
        <mxCell id="0nlP4w7GxKzb-bfFtLwG-45" value="&lt;b&gt;[Sign Up]&lt;/b&gt;" style="text;html=1;align=center;verticalAlign=middle;resizable=0;points=[];autosize=1;strokeColor=none;fillColor=none;" parent="1" vertex="1">
          <mxGeometry x="110" y="540" width="80" height="30" as="geometry" />
        </mxCell>
        <mxCell id="0nlP4w7GxKzb-bfFtLwG-46" value="&lt;b&gt;[Sign In]&lt;/b&gt;" style="text;html=1;align=center;verticalAlign=middle;resizable=0;points=[];autosize=1;strokeColor=none;fillColor=none;" parent="1" vertex="1">
          <mxGeometry x="55" y="688" width="70" height="30" as="geometry" />
        </mxCell>
        <mxCell id="0nlP4w7GxKzb-bfFtLwG-47" value="" style="endArrow=classic;html=1;rounded=0;exitX=0.929;exitY=1;exitDx=0;exitDy=0;exitPerimeter=0;" parent="1" source="0nlP4w7GxKzb-bfFtLwG-46" edge="1">
          <mxGeometry width="50" height="50" relative="1" as="geometry">
            <mxPoint x="125" y="718" as="sourcePoint" />
            <mxPoint x="120" y="748" as="targetPoint" />
            <Array as="points">
              <mxPoint x="185" y="718" />
              <mxPoint x="185" y="748" />
            </Array>
          </mxGeometry>
        </mxCell>
        <mxCell id="0nlP4w7GxKzb-bfFtLwG-48" value="Enter Credentials" style="text;html=1;align=center;verticalAlign=middle;resizable=0;points=[];autosize=1;strokeColor=none;fillColor=none;" parent="1" vertex="1">
          <mxGeometry x="105" y="698" width="120" height="30" as="geometry" />
        </mxCell>
        <mxCell id="0nlP4w7GxKzb-bfFtLwG-49" value="" style="endArrow=classic;html=1;rounded=0;" parent="1" edge="1">
          <mxGeometry width="50" height="50" relative="1" as="geometry">
            <mxPoint x="120" y="770" as="sourcePoint" />
            <mxPoint x="790" y="770" as="targetPoint" />
          </mxGeometry>
        </mxCell>
        <mxCell id="0nlP4w7GxKzb-bfFtLwG-50" value="" style="endArrow=classic;html=1;rounded=0;dashed=1;dashPattern=8 8;" parent="1" edge="1">
          <mxGeometry width="50" height="50" relative="1" as="geometry">
            <mxPoint x="800" y="800" as="sourcePoint" />
            <mxPoint x="120" y="800" as="targetPoint" />
          </mxGeometry>
        </mxCell>
        <mxCell id="0nlP4w7GxKzb-bfFtLwG-51" value="Validate Credentials" style="text;html=1;align=center;verticalAlign=middle;resizable=0;points=[];autosize=1;strokeColor=none;fillColor=none;" parent="1" vertex="1">
          <mxGeometry x="110" y="748" width="130" height="30" as="geometry" />
        </mxCell>
        <mxCell id="0nlP4w7GxKzb-bfFtLwG-52" value="Credentials Valid" style="text;html=1;align=center;verticalAlign=middle;resizable=0;points=[];autosize=1;strokeColor=none;fillColor=none;" parent="1" vertex="1">
          <mxGeometry x="120" y="778" width="110" height="30" as="geometry" />
        </mxCell>
        <mxCell id="0nlP4w7GxKzb-bfFtLwG-55" value="" style="endArrow=none;dashed=1;html=1;rounded=0;exitX=-0.003;exitY=0.786;exitDx=0;exitDy=0;exitPerimeter=0;entryX=1;entryY=0.791;entryDx=0;entryDy=0;entryPerimeter=0;" parent="1" source="0nlP4w7GxKzb-bfFtLwG-42" target="0nlP4w7GxKzb-bfFtLwG-42" edge="1">
          <mxGeometry width="50" height="50" relative="1" as="geometry">
            <mxPoint x="370" y="870" as="sourcePoint" />
            <mxPoint x="420" y="820" as="targetPoint" />
          </mxGeometry>
        </mxCell>
        <mxCell id="0nlP4w7GxKzb-bfFtLwG-56" value="&lt;b&gt;[Continue Without SignIn In]&lt;/b&gt;" style="text;html=1;align=center;verticalAlign=middle;resizable=0;points=[];autosize=1;strokeColor=none;fillColor=none;" parent="1" vertex="1">
          <mxGeometry x="110" y="810" width="190" height="30" as="geometry" />
        </mxCell>
        <mxCell id="0nlP4w7GxKzb-bfFtLwG-57" value="" style="endArrow=classic;html=1;rounded=0;" parent="1" edge="1">
          <mxGeometry width="50" height="50" relative="1" as="geometry">
            <mxPoint x="120" y="850" as="sourcePoint" />
            <mxPoint x="120" y="880" as="targetPoint" />
            <Array as="points">
              <mxPoint x="205" y="850" />
              <mxPoint x="205" y="880" />
            </Array>
          </mxGeometry>
        </mxCell>
        <mxCell id="0nlP4w7GxKzb-bfFtLwG-58" value="Continue Without SignIn In" style="text;html=1;align=center;verticalAlign=middle;resizable=0;points=[];autosize=1;strokeColor=none;fillColor=none;" parent="1" vertex="1">
          <mxGeometry x="110" y="828" width="170" height="30" as="geometry" />
        </mxCell>
        <mxCell id="0nlP4w7GxKzb-bfFtLwG-59" value="" style="endArrow=classic;html=1;rounded=0;exitX=0.929;exitY=1;exitDx=0;exitDy=0;exitPerimeter=0;" parent="1" edge="1">
          <mxGeometry width="50" height="50" relative="1" as="geometry">
            <mxPoint x="120" y="910" as="sourcePoint" />
            <mxPoint x="120" y="940" as="targetPoint" />
            <Array as="points">
              <mxPoint x="185" y="910" />
              <mxPoint x="185" y="940" />
            </Array>
          </mxGeometry>
        </mxCell>
        <mxCell id="0nlP4w7GxKzb-bfFtLwG-60" value="Display Home Screen" style="text;html=1;align=center;verticalAlign=middle;resizable=0;points=[];autosize=1;strokeColor=none;fillColor=none;" parent="1" vertex="1">
          <mxGeometry x="115" y="888" width="140" height="30" as="geometry" />
        </mxCell>
        <mxCell id="0nlP4w7GxKzb-bfFtLwG-61" value="" style="endArrow=classic;html=1;rounded=0;exitX=0.929;exitY=1;exitDx=0;exitDy=0;exitPerimeter=0;" parent="1" edge="1">
          <mxGeometry width="50" height="50" relative="1" as="geometry">
            <mxPoint x="120" y="960" as="sourcePoint" />
            <mxPoint x="120" y="990" as="targetPoint" />
            <Array as="points">
              <mxPoint x="185" y="960" />
              <mxPoint x="185" y="990" />
            </Array>
          </mxGeometry>
        </mxCell>
        <mxCell id="0nlP4w7GxKzb-bfFtLwG-62" value="View Real-time Temperature&amp;nbsp;" style="text;html=1;align=center;verticalAlign=middle;resizable=0;points=[];autosize=1;strokeColor=none;fillColor=none;" parent="1" vertex="1">
          <mxGeometry x="115" y="938" width="180" height="30" as="geometry" />
        </mxCell>
        <mxCell id="0nlP4w7GxKzb-bfFtLwG-63" value="" style="endArrow=classic;html=1;rounded=0;" parent="1" edge="1">
          <mxGeometry width="50" height="50" relative="1" as="geometry">
            <mxPoint x="120" y="1010" as="sourcePoint" />
            <mxPoint x="580" y="1010" as="targetPoint" />
          </mxGeometry>
        </mxCell>
        <mxCell id="0nlP4w7GxKzb-bfFtLwG-64" value="" style="endArrow=open;html=1;rounded=0;dashed=1;dashPattern=8 8;endFill=0;" parent="1" edge="1">
          <mxGeometry width="50" height="50" relative="1" as="geometry">
            <mxPoint x="580" y="1040" as="sourcePoint" />
            <mxPoint x="120" y="1040" as="targetPoint" />
          </mxGeometry>
        </mxCell>
        <mxCell id="0nlP4w7GxKzb-bfFtLwG-65" value="Request Temperature Data" style="text;html=1;align=center;verticalAlign=middle;resizable=0;points=[];autosize=1;strokeColor=none;fillColor=none;" parent="1" vertex="1">
          <mxGeometry x="110" y="988" width="170" height="30" as="geometry" />
        </mxCell>
        <mxCell id="0nlP4w7GxKzb-bfFtLwG-67" value="Send Temperature Data" style="text;html=1;align=center;verticalAlign=middle;resizable=0;points=[];autosize=1;strokeColor=none;fillColor=none;" parent="1" vertex="1">
          <mxGeometry x="115" y="1010" width="150" height="30" as="geometry" />
        </mxCell>
        <mxCell id="0nlP4w7GxKzb-bfFtLwG-68" value="" style="endArrow=classic;html=1;rounded=0;exitX=0.929;exitY=1;exitDx=0;exitDy=0;exitPerimeter=0;" parent="1" edge="1">
          <mxGeometry width="50" height="50" relative="1" as="geometry">
            <mxPoint x="120" y="1070" as="sourcePoint" />
            <mxPoint x="120" y="1100" as="targetPoint" />
            <Array as="points">
              <mxPoint x="185" y="1070" />
              <mxPoint x="185" y="1100" />
            </Array>
          </mxGeometry>
        </mxCell>
        <mxCell id="0nlP4w7GxKzb-bfFtLwG-69" value="Display Temperature" style="text;html=1;align=center;verticalAlign=middle;resizable=0;points=[];autosize=1;strokeColor=none;fillColor=none;" parent="1" vertex="1">
          <mxGeometry x="115" y="1048" width="130" height="30" as="geometry" />
        </mxCell>
        <mxCell id="0nlP4w7GxKzb-bfFtLwG-70" value="" style="endArrow=classic;html=1;rounded=0;exitX=0.929;exitY=1;exitDx=0;exitDy=0;exitPerimeter=0;" parent="1" edge="1">
          <mxGeometry width="50" height="50" relative="1" as="geometry">
            <mxPoint x="120" y="1130" as="sourcePoint" />
            <mxPoint x="120" y="1160" as="targetPoint" />
            <Array as="points">
              <mxPoint x="185" y="1130" />
              <mxPoint x="185" y="1160" />
            </Array>
          </mxGeometry>
        </mxCell>
        <mxCell id="0nlP4w7GxKzb-bfFtLwG-71" value="View Disaster Alerts" style="text;html=1;align=center;verticalAlign=middle;resizable=0;points=[];autosize=1;strokeColor=none;fillColor=none;" parent="1" vertex="1">
          <mxGeometry x="115" y="1100" width="130" height="30" as="geometry" />
        </mxCell>
        <mxCell id="0nlP4w7GxKzb-bfFtLwG-72" value="" style="endArrow=classic;html=1;rounded=0;" parent="1" edge="1">
          <mxGeometry width="50" height="50" relative="1" as="geometry">
            <mxPoint x="120" y="1180" as="sourcePoint" />
            <mxPoint x="690" y="1180" as="targetPoint" />
          </mxGeometry>
        </mxCell>
        <mxCell id="0nlP4w7GxKzb-bfFtLwG-73" value="" style="endArrow=open;html=1;rounded=0;dashed=1;dashPattern=8 8;endFill=0;" parent="1" edge="1">
          <mxGeometry width="50" height="50" relative="1" as="geometry">
            <mxPoint x="690" y="1220" as="sourcePoint" />
            <mxPoint x="120" y="1220" as="targetPoint" />
          </mxGeometry>
        </mxCell>
        <mxCell id="0nlP4w7GxKzb-bfFtLwG-74" value="Request Alerts Data" style="text;html=1;align=center;verticalAlign=middle;resizable=0;points=[];autosize=1;strokeColor=none;fillColor=none;" parent="1" vertex="1">
          <mxGeometry x="115" y="1158" width="130" height="30" as="geometry" />
        </mxCell>
        <mxCell id="0nlP4w7GxKzb-bfFtLwG-75" value="Send Alerts Data" style="text;html=1;align=center;verticalAlign=middle;resizable=0;points=[];autosize=1;strokeColor=none;fillColor=none;" parent="1" vertex="1">
          <mxGeometry x="120" y="1198" width="110" height="30" as="geometry" />
        </mxCell>
        <mxCell id="0nlP4w7GxKzb-bfFtLwG-76" value="" style="endArrow=classic;html=1;rounded=0;exitX=0.929;exitY=1;exitDx=0;exitDy=0;exitPerimeter=0;" parent="1" edge="1">
          <mxGeometry width="50" height="50" relative="1" as="geometry">
            <mxPoint x="120" y="1240" as="sourcePoint" />
            <mxPoint x="120" y="1270" as="targetPoint" />
            <Array as="points">
              <mxPoint x="185" y="1240" />
              <mxPoint x="185" y="1270" />
            </Array>
          </mxGeometry>
        </mxCell>
        <mxCell id="0nlP4w7GxKzb-bfFtLwG-77" value="" style="endArrow=classic;html=1;rounded=0;exitX=0.929;exitY=1;exitDx=0;exitDy=0;exitPerimeter=0;" parent="1" edge="1">
          <mxGeometry width="50" height="50" relative="1" as="geometry">
            <mxPoint x="120" y="1290" as="sourcePoint" />
            <mxPoint x="120" y="1320" as="targetPoint" />
            <Array as="points">
              <mxPoint x="185" y="1290" />
              <mxPoint x="185" y="1320" />
            </Array>
          </mxGeometry>
        </mxCell>
        <mxCell id="0nlP4w7GxKzb-bfFtLwG-78" value="" style="endArrow=classic;html=1;rounded=0;" parent="1" edge="1">
          <mxGeometry width="50" height="50" relative="1" as="geometry">
            <mxPoint x="120" y="1350" as="sourcePoint" />
            <mxPoint x="790" y="1350" as="targetPoint" />
          </mxGeometry>
        </mxCell>
        <mxCell id="0nlP4w7GxKzb-bfFtLwG-79" value="" style="endArrow=open;html=1;rounded=0;endFill=0;dashed=1;dashPattern=8 8;" parent="1" edge="1">
          <mxGeometry width="50" height="50" relative="1" as="geometry">
            <mxPoint x="800" y="1390" as="sourcePoint" />
            <mxPoint x="120" y="1390" as="targetPoint" />
          </mxGeometry>
        </mxCell>
        <mxCell id="0nlP4w7GxKzb-bfFtLwG-80" value="" style="endArrow=classic;html=1;rounded=0;exitX=0.929;exitY=1;exitDx=0;exitDy=0;exitPerimeter=0;" parent="1" edge="1">
          <mxGeometry width="50" height="50" relative="1" as="geometry">
            <mxPoint x="120" y="1420" as="sourcePoint" />
            <mxPoint x="120" y="1450" as="targetPoint" />
            <Array as="points">
              <mxPoint x="185" y="1420" />
              <mxPoint x="185" y="1450" />
            </Array>
          </mxGeometry>
        </mxCell>
        <mxCell id="0nlP4w7GxKzb-bfFtLwG-81" value="" style="endArrow=classic;html=1;rounded=0;exitX=0.929;exitY=1;exitDx=0;exitDy=0;exitPerimeter=0;" parent="1" edge="1">
          <mxGeometry width="50" height="50" relative="1" as="geometry">
            <mxPoint x="120" y="1480" as="sourcePoint" />
            <mxPoint x="120" y="1510" as="targetPoint" />
            <Array as="points">
              <mxPoint x="185" y="1480" />
              <mxPoint x="185" y="1510" />
            </Array>
          </mxGeometry>
        </mxCell>
        <mxCell id="0nlP4w7GxKzb-bfFtLwG-82" value="" style="endArrow=classic;html=1;rounded=0;" parent="1" edge="1">
          <mxGeometry width="50" height="50" relative="1" as="geometry">
            <mxPoint x="120" y="1540" as="sourcePoint" />
            <mxPoint x="790" y="1540" as="targetPoint" />
          </mxGeometry>
        </mxCell>
        <mxCell id="0nlP4w7GxKzb-bfFtLwG-83" value="" style="endArrow=open;html=1;rounded=0;endFill=0;dashed=1;dashPattern=8 8;" parent="1" edge="1">
          <mxGeometry width="50" height="50" relative="1" as="geometry">
            <mxPoint x="800" y="1570" as="sourcePoint" />
            <mxPoint x="120" y="1570" as="targetPoint" />
          </mxGeometry>
        </mxCell>
        <mxCell id="0nlP4w7GxKzb-bfFtLwG-84" value="" style="endArrow=classic;html=1;rounded=0;exitX=0.929;exitY=1;exitDx=0;exitDy=0;exitPerimeter=0;" parent="1" edge="1">
          <mxGeometry width="50" height="50" relative="1" as="geometry">
            <mxPoint x="120" y="1600" as="sourcePoint" />
            <mxPoint x="120" y="1630" as="targetPoint" />
            <Array as="points">
              <mxPoint x="185" y="1600" />
              <mxPoint x="185" y="1630" />
            </Array>
          </mxGeometry>
        </mxCell>
        <mxCell id="0nlP4w7GxKzb-bfFtLwG-85" value="Display Alerts" style="text;html=1;align=center;verticalAlign=middle;resizable=0;points=[];autosize=1;strokeColor=none;fillColor=none;" parent="1" vertex="1">
          <mxGeometry x="110" y="1220" width="100" height="30" as="geometry" />
        </mxCell>
        <mxCell id="0nlP4w7GxKzb-bfFtLwG-86" value="View Safety Guidelines" style="text;html=1;align=center;verticalAlign=middle;resizable=0;points=[];autosize=1;strokeColor=none;fillColor=none;" parent="1" vertex="1">
          <mxGeometry x="115" y="1268" width="150" height="30" as="geometry" />
        </mxCell>
        <mxCell id="0nlP4w7GxKzb-bfFtLwG-87" value="Fetch Safety Guidelines" style="text;html=1;align=center;verticalAlign=middle;resizable=0;points=[];autosize=1;strokeColor=none;fillColor=none;" parent="1" vertex="1">
          <mxGeometry x="115" y="1328" width="150" height="30" as="geometry" />
        </mxCell>
        <mxCell id="0nlP4w7GxKzb-bfFtLwG-88" value="Guidelines Data" style="text;html=1;align=center;verticalAlign=middle;resizable=0;points=[];autosize=1;strokeColor=none;fillColor=none;" parent="1" vertex="1">
          <mxGeometry x="120" y="1368" width="110" height="30" as="geometry" />
        </mxCell>
        <mxCell id="0nlP4w7GxKzb-bfFtLwG-89" value="Display&amp;nbsp; Guidlines" style="text;html=1;align=center;verticalAlign=middle;resizable=0;points=[];autosize=1;strokeColor=none;fillColor=none;" parent="1" vertex="1">
          <mxGeometry x="120" y="1398" width="120" height="30" as="geometry" />
        </mxCell>
        <mxCell id="0nlP4w7GxKzb-bfFtLwG-90" value="Submit Emergency Report (Description,Media)" style="text;html=1;align=center;verticalAlign=middle;resizable=0;points=[];autosize=1;strokeColor=none;fillColor=none;" parent="1" vertex="1">
          <mxGeometry x="110" y="1460" width="270" height="30" as="geometry" />
        </mxCell>
        <mxCell id="0nlP4w7GxKzb-bfFtLwG-91" value="Store Report Data" style="text;html=1;align=center;verticalAlign=middle;resizable=0;points=[];autosize=1;strokeColor=none;fillColor=none;" parent="1" vertex="1">
          <mxGeometry x="115" y="1510" width="120" height="30" as="geometry" />
        </mxCell>
        <mxCell id="0nlP4w7GxKzb-bfFtLwG-92" value="Confirmation" style="text;html=1;align=center;verticalAlign=middle;resizable=0;points=[];autosize=1;strokeColor=none;fillColor=none;" parent="1" vertex="1">
          <mxGeometry x="125" y="1548" width="90" height="30" as="geometry" />
        </mxCell>
        <mxCell id="0nlP4w7GxKzb-bfFtLwG-93" value="View Real-Time Map" style="text;html=1;align=center;verticalAlign=middle;resizable=0;points=[];autosize=1;strokeColor=none;fillColor=none;" parent="1" vertex="1">
          <mxGeometry x="115" y="1578" width="130" height="30" as="geometry" />
        </mxCell>
        <mxCell id="0nlP4w7GxKzb-bfFtLwG-94" value="" style="endArrow=classic;html=1;rounded=0;" parent="1" edge="1">
          <mxGeometry width="50" height="50" relative="1" as="geometry">
            <mxPoint x="120" y="1650" as="sourcePoint" />
            <mxPoint x="690" y="1650" as="targetPoint" />
          </mxGeometry>
        </mxCell>
        <mxCell id="0nlP4w7GxKzb-bfFtLwG-95" value="" style="endArrow=open;html=1;rounded=0;endFill=0;dashed=1;dashPattern=8 8;" parent="1" edge="1">
          <mxGeometry width="50" height="50" relative="1" as="geometry">
            <mxPoint x="690" y="1680" as="sourcePoint" />
            <mxPoint x="120" y="1680" as="targetPoint" />
          </mxGeometry>
        </mxCell>
        <mxCell id="0nlP4w7GxKzb-bfFtLwG-96" value="" style="endArrow=classic;html=1;rounded=0;exitX=0.929;exitY=1;exitDx=0;exitDy=0;exitPerimeter=0;" parent="1" edge="1">
          <mxGeometry width="50" height="50" relative="1" as="geometry">
            <mxPoint x="120" y="1700" as="sourcePoint" />
            <mxPoint x="120" y="1730" as="targetPoint" />
            <Array as="points">
              <mxPoint x="185" y="1700" />
              <mxPoint x="185" y="1730" />
            </Array>
          </mxGeometry>
        </mxCell>
        <mxCell id="0nlP4w7GxKzb-bfFtLwG-97" value="" style="endArrow=classic;html=1;rounded=0;exitX=0.929;exitY=1;exitDx=0;exitDy=0;exitPerimeter=0;" parent="1" edge="1">
          <mxGeometry width="50" height="50" relative="1" as="geometry">
            <mxPoint x="120" y="1750" as="sourcePoint" />
            <mxPoint x="120" y="1780" as="targetPoint" />
            <Array as="points">
              <mxPoint x="185" y="1750" />
              <mxPoint x="185" y="1780" />
            </Array>
          </mxGeometry>
        </mxCell>
        <mxCell id="0nlP4w7GxKzb-bfFtLwG-98" value="" style="endArrow=classic;html=1;rounded=0;" parent="1" edge="1">
          <mxGeometry width="50" height="50" relative="1" as="geometry">
            <mxPoint x="120" y="1810" as="sourcePoint" />
            <mxPoint x="790" y="1810" as="targetPoint" />
          </mxGeometry>
        </mxCell>
        <mxCell id="0nlP4w7GxKzb-bfFtLwG-99" value="" style="endArrow=open;html=1;rounded=0;endFill=0;dashed=1;dashPattern=8 8;" parent="1" edge="1">
          <mxGeometry width="50" height="50" relative="1" as="geometry">
            <mxPoint x="800" y="1840" as="sourcePoint" />
            <mxPoint x="120" y="1840" as="targetPoint" />
          </mxGeometry>
        </mxCell>
        <mxCell id="0nlP4w7GxKzb-bfFtLwG-100" value="" style="endArrow=classic;html=1;rounded=0;exitX=0.929;exitY=1;exitDx=0;exitDy=0;exitPerimeter=0;" parent="1" edge="1">
          <mxGeometry width="50" height="50" relative="1" as="geometry">
            <mxPoint x="120" y="1860" as="sourcePoint" />
            <mxPoint x="120" y="1890" as="targetPoint" />
            <Array as="points">
              <mxPoint x="185" y="1860" />
              <mxPoint x="185" y="1890" />
            </Array>
          </mxGeometry>
        </mxCell>
        <mxCell id="0nlP4w7GxKzb-bfFtLwG-101" value="" style="endArrow=classic;html=1;rounded=0;" parent="1" edge="1">
          <mxGeometry width="50" height="50" relative="1" as="geometry">
            <mxPoint x="470" y="1920" as="sourcePoint" />
            <mxPoint x="120" y="1920" as="targetPoint" />
          </mxGeometry>
        </mxCell>
        <mxCell id="0nlP4w7GxKzb-bfFtLwG-102" value="" style="endArrow=classic;html=1;rounded=0;exitX=0.929;exitY=1;exitDx=0;exitDy=0;exitPerimeter=0;" parent="1" edge="1">
          <mxGeometry width="50" height="50" relative="1" as="geometry">
            <mxPoint x="120" y="1950" as="sourcePoint" />
            <mxPoint x="120" y="1980" as="targetPoint" />
            <Array as="points">
              <mxPoint x="185" y="1950" />
              <mxPoint x="185" y="1980" />
            </Array>
          </mxGeometry>
        </mxCell>
        <mxCell id="0nlP4w7GxKzb-bfFtLwG-103" value="" style="endArrow=classic;html=1;rounded=0;exitX=0.929;exitY=1;exitDx=0;exitDy=0;exitPerimeter=0;" parent="1" edge="1">
          <mxGeometry width="50" height="50" relative="1" as="geometry">
            <mxPoint x="120" y="2000" as="sourcePoint" />
            <mxPoint x="120" y="2030" as="targetPoint" />
            <Array as="points">
              <mxPoint x="185" y="2000" />
              <mxPoint x="185" y="2030" />
            </Array>
          </mxGeometry>
        </mxCell>
        <mxCell id="0nlP4w7GxKzb-bfFtLwG-104" value="" style="endArrow=classic;html=1;rounded=0;" parent="1" edge="1">
          <mxGeometry width="50" height="50" relative="1" as="geometry">
            <mxPoint x="120" y="2060" as="sourcePoint" />
            <mxPoint x="690" y="2060" as="targetPoint" />
          </mxGeometry>
        </mxCell>
        <mxCell id="0nlP4w7GxKzb-bfFtLwG-105" value="" style="endArrow=open;html=1;rounded=0;endFill=0;dashed=1;dashPattern=8 8;" parent="1" edge="1">
          <mxGeometry width="50" height="50" relative="1" as="geometry">
            <mxPoint x="690" y="2090" as="sourcePoint" />
            <mxPoint x="120" y="2090" as="targetPoint" />
          </mxGeometry>
        </mxCell>
        <mxCell id="0nlP4w7GxKzb-bfFtLwG-106" value="" style="endArrow=classic;html=1;rounded=0;exitX=0.929;exitY=1;exitDx=0;exitDy=0;exitPerimeter=0;" parent="1" edge="1">
          <mxGeometry width="50" height="50" relative="1" as="geometry">
            <mxPoint x="117.5" y="2120" as="sourcePoint" />
            <mxPoint x="117.5" y="2150" as="targetPoint" />
            <Array as="points">
              <mxPoint x="182.5" y="2120" />
              <mxPoint x="182.5" y="2150" />
            </Array>
          </mxGeometry>
        </mxCell>
        <mxCell id="0nlP4w7GxKzb-bfFtLwG-107" value="" style="endArrow=classic;html=1;rounded=0;exitX=0.929;exitY=1;exitDx=0;exitDy=0;exitPerimeter=0;" parent="1" edge="1">
          <mxGeometry width="50" height="50" relative="1" as="geometry">
            <mxPoint x="120" y="2170" as="sourcePoint" />
            <mxPoint x="120" y="2200" as="targetPoint" />
            <Array as="points">
              <mxPoint x="185" y="2170" />
              <mxPoint x="185" y="2200" />
            </Array>
          </mxGeometry>
        </mxCell>
        <mxCell id="0nlP4w7GxKzb-bfFtLwG-108" value="" style="endArrow=classic;html=1;rounded=0;" parent="1" edge="1">
          <mxGeometry width="50" height="50" relative="1" as="geometry">
            <mxPoint x="120" y="2230" as="sourcePoint" />
            <mxPoint x="790" y="2230" as="targetPoint" />
          </mxGeometry>
        </mxCell>
        <mxCell id="0nlP4w7GxKzb-bfFtLwG-109" value="" style="endArrow=open;html=1;rounded=0;endFill=0;dashed=1;dashPattern=8 8;" parent="1" edge="1">
          <mxGeometry width="50" height="50" relative="1" as="geometry">
            <mxPoint x="790" y="2270" as="sourcePoint" />
            <mxPoint x="120" y="2270" as="targetPoint" />
          </mxGeometry>
        </mxCell>
        <mxCell id="0nlP4w7GxKzb-bfFtLwG-110" value="" style="endArrow=classic;html=1;rounded=0;exitX=0.929;exitY=1;exitDx=0;exitDy=0;exitPerimeter=0;" parent="1" edge="1">
          <mxGeometry width="50" height="50" relative="1" as="geometry">
            <mxPoint x="120" y="2300" as="sourcePoint" />
            <mxPoint x="120" y="2330" as="targetPoint" />
            <Array as="points">
              <mxPoint x="185" y="2300" />
              <mxPoint x="185" y="2330" />
            </Array>
          </mxGeometry>
        </mxCell>
        <mxCell id="0nlP4w7GxKzb-bfFtLwG-111" value="Request Map Data" style="text;html=1;align=center;verticalAlign=middle;resizable=0;points=[];autosize=1;strokeColor=none;fillColor=none;" parent="1" vertex="1">
          <mxGeometry x="115" y="1628" width="120" height="30" as="geometry" />
        </mxCell>
        <mxCell id="0nlP4w7GxKzb-bfFtLwG-112" value="Send Map Data" style="text;html=1;align=center;verticalAlign=middle;resizable=0;points=[];autosize=1;strokeColor=none;fillColor=none;" parent="1" vertex="1">
          <mxGeometry x="125" y="1658" width="110" height="30" as="geometry" />
        </mxCell>
        <mxCell id="0nlP4w7GxKzb-bfFtLwG-113" value="Display Map" style="text;html=1;align=center;verticalAlign=middle;resizable=0;points=[];autosize=1;strokeColor=none;fillColor=none;" parent="1" vertex="1">
          <mxGeometry x="110" y="1678" width="90" height="30" as="geometry" />
        </mxCell>
        <mxCell id="0nlP4w7GxKzb-bfFtLwG-114" value="Manage Emergency Contact" style="text;html=1;align=center;verticalAlign=middle;resizable=0;points=[];autosize=1;strokeColor=none;fillColor=none;" parent="1" vertex="1">
          <mxGeometry x="110" y="1728" width="180" height="30" as="geometry" />
        </mxCell>
        <mxCell id="0nlP4w7GxKzb-bfFtLwG-115" value="Update Contact" style="text;html=1;align=center;verticalAlign=middle;resizable=0;points=[];autosize=1;strokeColor=none;fillColor=none;" parent="1" vertex="1">
          <mxGeometry x="110" y="1788" width="110" height="30" as="geometry" />
        </mxCell>
        <mxCell id="0nlP4w7GxKzb-bfFtLwG-116" value="Confirmation" style="text;html=1;align=center;verticalAlign=middle;resizable=0;points=[];autosize=1;strokeColor=none;fillColor=none;" parent="1" vertex="1">
          <mxGeometry x="115" y="1808" width="90" height="30" as="geometry" />
        </mxCell>
        <mxCell id="0nlP4w7GxKzb-bfFtLwG-117" value="Receive Notification" style="text;html=1;align=center;verticalAlign=middle;resizable=0;points=[];autosize=1;strokeColor=none;fillColor=none;" parent="1" vertex="1">
          <mxGeometry x="115" y="1838" width="130" height="30" as="geometry" />
        </mxCell>
        <mxCell id="0nlP4w7GxKzb-bfFtLwG-118" value="Send Notification" style="text;html=1;align=center;verticalAlign=middle;resizable=0;points=[];autosize=1;strokeColor=none;fillColor=none;" parent="1" vertex="1">
          <mxGeometry x="115" y="1890" width="110" height="30" as="geometry" />
        </mxCell>
        <mxCell id="0nlP4w7GxKzb-bfFtLwG-119" value="Display Notification" style="text;html=1;align=center;verticalAlign=middle;resizable=0;points=[];autosize=1;strokeColor=none;fillColor=none;" parent="1" vertex="1">
          <mxGeometry x="115" y="1928" width="130" height="30" as="geometry" />
        </mxCell>
        <mxCell id="0nlP4w7GxKzb-bfFtLwG-120" value="Request Emergency Help" style="text;html=1;align=center;verticalAlign=middle;resizable=0;points=[];autosize=1;strokeColor=none;fillColor=none;" parent="1" vertex="1">
          <mxGeometry x="110" y="1978" width="160" height="30" as="geometry" />
        </mxCell>
        <mxCell id="0nlP4w7GxKzb-bfFtLwG-121" value="Verify Request" style="text;html=1;align=center;verticalAlign=middle;resizable=0;points=[];autosize=1;strokeColor=none;fillColor=none;" parent="1" vertex="1">
          <mxGeometry x="120" y="2038" width="100" height="30" as="geometry" />
        </mxCell>
        <mxCell id="0nlP4w7GxKzb-bfFtLwG-122" value="Verification Success" style="text;html=1;align=center;verticalAlign=middle;resizable=0;points=[];autosize=1;strokeColor=none;fillColor=none;" parent="1" vertex="1">
          <mxGeometry x="120" y="2068" width="130" height="30" as="geometry" />
        </mxCell>
        <mxCell id="0nlP4w7GxKzb-bfFtLwG-123" value="Display Rescue Success" style="text;html=1;align=center;verticalAlign=middle;resizable=0;points=[];autosize=1;strokeColor=none;fillColor=none;" parent="1" vertex="1">
          <mxGeometry x="110" y="2098" width="160" height="30" as="geometry" />
        </mxCell>
        <mxCell id="0nlP4w7GxKzb-bfFtLwG-124" value="Logout" style="text;html=1;align=center;verticalAlign=middle;resizable=0;points=[];autosize=1;strokeColor=none;fillColor=none;" parent="1" vertex="1">
          <mxGeometry x="110" y="2148" width="60" height="30" as="geometry" />
        </mxCell>
        <mxCell id="0nlP4w7GxKzb-bfFtLwG-125" value="Update User Status&amp;nbsp;" style="text;html=1;align=center;verticalAlign=middle;resizable=0;points=[];autosize=1;strokeColor=none;fillColor=none;" parent="1" vertex="1">
          <mxGeometry x="110" y="2208" width="130" height="30" as="geometry" />
        </mxCell>
        <mxCell id="0nlP4w7GxKzb-bfFtLwG-126" value="Confirmation" style="text;html=1;align=center;verticalAlign=middle;resizable=0;points=[];autosize=1;strokeColor=none;fillColor=none;" parent="1" vertex="1">
          <mxGeometry x="115" y="2238" width="90" height="30" as="geometry" />
        </mxCell>
        <mxCell id="0nlP4w7GxKzb-bfFtLwG-127" value="Close App" style="text;html=1;align=center;verticalAlign=middle;resizable=0;points=[];autosize=1;strokeColor=none;fillColor=none;" parent="1" vertex="1">
          <mxGeometry x="110" y="2278" width="80" height="30" as="geometry" />
        </mxCell>
        <mxCell id="0nlP4w7GxKzb-bfFtLwG-128" value="User" style="rounded=0;whiteSpace=wrap;html=1;" parent="1" vertex="1">
          <mxGeometry x="60" y="2360" width="120" height="30" as="geometry" />
        </mxCell>
        <mxCell id="0nlP4w7GxKzb-bfFtLwG-129" value="LocationService" style="rounded=0;whiteSpace=wrap;html=1;" parent="1" vertex="1">
          <mxGeometry x="290" y="2360" width="120" height="30" as="geometry" />
        </mxCell>
        <mxCell id="0nlP4w7GxKzb-bfFtLwG-130" value="System" style="rounded=0;whiteSpace=wrap;html=1;" parent="1" vertex="1">
          <mxGeometry x="765" y="2360" width="90" height="30" as="geometry" />
        </mxCell>
        <mxCell id="0nlP4w7GxKzb-bfFtLwG-131" value="Disaster" style="rounded=0;whiteSpace=wrap;html=1;" parent="1" vertex="1">
          <mxGeometry x="655" y="2360" width="100" height="30" as="geometry" />
        </mxCell>
        <mxCell id="0nlP4w7GxKzb-bfFtLwG-132" value="WeatherService" style="rounded=0;whiteSpace=wrap;html=1;" parent="1" vertex="1">
          <mxGeometry x="555" y="2360" width="90" height="30" as="geometry" />
        </mxCell>
        <mxCell id="0nlP4w7GxKzb-bfFtLwG-133" value="NotificationService" style="rounded=0;whiteSpace=wrap;html=1;" parent="1" vertex="1">
          <mxGeometry x="425" y="2360" width="120" height="30" as="geometry" />
        </mxCell>
        <mxCell id="0nlP4w7GxKzb-bfFtLwG-134" value="Open App" style="text;html=1;align=center;verticalAlign=middle;resizable=0;points=[];autosize=1;strokeColor=none;fillColor=none;" parent="1" vertex="1">
          <mxGeometry x="110" y="78" width="80" height="30" as="geometry" />
        </mxCell>
        <mxCell id="JMvQz96KyHuLc09Xq-h_-1" value="" style="rounded=0;whiteSpace=wrap;html=1;" parent="1" vertex="1">
          <mxGeometry x="100" y="80" width="20" height="70" as="geometry" />
        </mxCell>
        <mxCell id="JMvQz96KyHuLc09Xq-h_-2" value="" style="rounded=0;whiteSpace=wrap;html=1;" parent="1" vertex="1">
          <mxGeometry x="100" y="180" width="20" height="250" as="geometry" />
        </mxCell>
        <mxCell id="JMvQz96KyHuLc09Xq-h_-3" value="" style="rounded=0;whiteSpace=wrap;html=1;" parent="1" vertex="1">
          <mxGeometry x="100" y="430" width="20" height="120" as="geometry" />
        </mxCell>
        <mxCell id="JMvQz96KyHuLc09Xq-h_-4" value="" style="rounded=0;whiteSpace=wrap;html=1;" parent="1" vertex="1">
          <mxGeometry x="100" y="580" width="20" height="110" as="geometry" />
        </mxCell>
        <mxCell id="JMvQz96KyHuLc09Xq-h_-5" value="" style="rounded=0;whiteSpace=wrap;html=1;" parent="1" vertex="1">
          <mxGeometry x="100" y="710" width="20" height="100" as="geometry" />
        </mxCell>
        <mxCell id="JMvQz96KyHuLc09Xq-h_-7" value="" style="rounded=0;whiteSpace=wrap;html=1;" parent="1" vertex="1">
          <mxGeometry x="100" y="830" width="20" height="60" as="geometry" />
        </mxCell>
        <mxCell id="JMvQz96KyHuLc09Xq-h_-8" value="" style="rounded=0;whiteSpace=wrap;html=1;" parent="1" vertex="1">
          <mxGeometry x="100" y="890" width="20" height="1460" as="geometry" />
        </mxCell>
        <mxCell id="JMvQz96KyHuLc09Xq-h_-9" value="" style="rounded=0;whiteSpace=wrap;html=1;" parent="1" vertex="1">
          <mxGeometry x="340" y="188" width="20" height="60" as="geometry" />
        </mxCell>
        <mxCell id="JMvQz96KyHuLc09Xq-h_-10" value="" style="rounded=0;whiteSpace=wrap;html=1;" parent="1" vertex="1">
          <mxGeometry x="470" y="260" width="20" height="60" as="geometry" />
        </mxCell>
        <mxCell id="JMvQz96KyHuLc09Xq-h_-11" value="" style="rounded=0;whiteSpace=wrap;html=1;" parent="1" vertex="1">
          <mxGeometry x="790" y="628" width="20" height="60" as="geometry" />
        </mxCell>
        <mxCell id="JMvQz96KyHuLc09Xq-h_-12" value="" style="rounded=0;whiteSpace=wrap;html=1;" parent="1" vertex="1">
          <mxGeometry x="790" y="750" width="20" height="60" as="geometry" />
        </mxCell>
        <mxCell id="JMvQz96KyHuLc09Xq-h_-13" value="" style="rounded=0;whiteSpace=wrap;html=1;" parent="1" vertex="1">
          <mxGeometry x="580" y="1000" width="20" height="60" as="geometry" />
        </mxCell>
        <mxCell id="JMvQz96KyHuLc09Xq-h_-14" value="" style="rounded=0;whiteSpace=wrap;html=1;" parent="1" vertex="1">
          <mxGeometry x="690" y="1168" width="20" height="60" as="geometry" />
        </mxCell>
        <mxCell id="JMvQz96KyHuLc09Xq-h_-15" value="" style="rounded=0;whiteSpace=wrap;html=1;" parent="1" vertex="1">
          <mxGeometry x="790" y="1338" width="20" height="60" as="geometry" />
        </mxCell>
        <mxCell id="JMvQz96KyHuLc09Xq-h_-16" value="" style="rounded=0;whiteSpace=wrap;html=1;" parent="1" vertex="1">
          <mxGeometry x="790" y="1533" width="20" height="60" as="geometry" />
        </mxCell>
        <mxCell id="JMvQz96KyHuLc09Xq-h_-17" value="" style="rounded=0;whiteSpace=wrap;html=1;" parent="1" vertex="1">
          <mxGeometry x="690" y="1630" width="20" height="60" as="geometry" />
        </mxCell>
        <mxCell id="JMvQz96KyHuLc09Xq-h_-18" value="" style="rounded=0;whiteSpace=wrap;html=1;" parent="1" vertex="1">
          <mxGeometry x="790" y="1800" width="20" height="60" as="geometry" />
        </mxCell>
        <mxCell id="JMvQz96KyHuLc09Xq-h_-19" value="" style="rounded=0;whiteSpace=wrap;html=1;" parent="1" vertex="1">
          <mxGeometry x="470" y="1898" width="20" height="42" as="geometry" />
        </mxCell>
        <mxCell id="JMvQz96KyHuLc09Xq-h_-20" value="" style="rounded=0;whiteSpace=wrap;html=1;" parent="1" vertex="1">
          <mxGeometry x="690" y="2050" width="20" height="60" as="geometry" />
        </mxCell>
        <mxCell id="JMvQz96KyHuLc09Xq-h_-21" value="" style="rounded=0;whiteSpace=wrap;html=1;" parent="1" vertex="1">
          <mxGeometry x="790" y="2223" width="20" height="60" as="geometry" />
        </mxCell>
      </root>
    </mxGraphModel>
  </diagram>
</mxfile>
